PathFileType	4	(X/Y/Z)	s09c0402.trc
DataRate	CameraRate	NumFrames	NumMarkers	Units	OrigDataRate	OrigDataStartFrame	OrigNumFrames
200	200	7	50	mm	200	0	2000
Frame#	Time	racr			lacr			c7			jug			rlel			rdr			llel			ldr			s2			lic			ric			lasi			rasi			rpsi			lpsi			rgt			lgt			rth1			rth2			rth3			rth4			rlfc			rmfc			rsh1			rsh2			rsh3			rsh4			rlmal			rmmal			rcal			rtoe			rmt5			lth1			lth2			lth4			lth3			llfc			lmfc			llmal			lmmal			lcal			lmt5			lsh1			lsh2			lsh3			lsh4			ltoe			SBIKE			LBIKE			RBIKE			
		X1	Y1	Z1	X2	Y2	Z2	X3	Y3	Z3	X4	Y4	Z4	X5	Y5	Z5	X6	Y6	Z6	X7	Y7	Z7	X8	Y8	Z8	X9	Y9	Z9	X10	Y10	Z10	X11	Y11	Z11	X12	Y12	Z12	X13	Y13	Z13	X14	Y14	Z14	X15	Y15	Z15	X16	Y16	Z16	X17	Y17	Z17	X18	Y18	Z18	X19	Y19	Z19	X20	Y20	Z20	X21	Y21	Z21	X22	Y22	Z22	X23	Y23	Z23	X24	Y24	Z24	X25	Y25	Z25	X26	Y26	Z26	X27	Y27	Z27	X28	Y28	Z28	X29	Y29	Z29	X30	Y30	Z30	X31	Y31	Z31	X32	Y32	Z32	X33	Y33	Z33	X34	Y34	Z34	X35	Y35	Z35	X36	Y36	Z36	X37	Y37	Z37	X38	Y38	Z38	X39	Y39	Z39	X40	Y40	Z40	X41	Y41	Z41	X42	Y42	Z42	X43	Y43	Z43	X44	Y44	Z44	X45	Y45	Z45	X46	Y46	Z46	X47	Y47	Z47	X48	Y48	Z48	X49	Y49	Z49	X50	Y50	Z50	
0	0.0000	522.945757	1316.886840	-102.979531	527.794774	1283.079267	-419.581740	501.928443	1324.917139	-254.575877	487.823775	1190.524659	-252.748240	506.400877	1077.405692	13.894390	690.619715	911.396513	-36.654691	451.977652	1022.600245	-517.871816	670.852542	909.750083	-461.882600	25.163995	1129.098977	-237.711574	158.670619	1124.897662	-385.258168	177.863365	1122.060592	-95.857094	200.076519	1065.118357	-366.270201	218.683407	1064.983471	-116.806130	58.889215	1157.538063	-178.763499	50.681178	1166.501836	-288.890603	148.994525	977.083379	-54.181428	120.092986	1000.770212	-431.955126	238.493238	869.344026	-70.070267	307.436342	818.659538	-83.169501	336.824778	733.870220	-95.267535	329.850818	835.439323	-108.043574	367.154279	635.465162	-131.624751	337.510680	623.574937	-227.258085	278.166402	586.626392	-92.799022	223.358388	517.040244	-100.174566	139.929871	485.843479	-91.673965	235.816583	498.633972	-132.666780	57.984695	425.577361	-84.775798	60.697371	432.951800	-164.727254	-35.002299	418.502286	-118.785666	212.225713	325.571885	-127.877503	131.228546	336.092906	-60.503850	229.008481	915.413013	-428.187617	310.649509	890.160035	-419.900718	329.760332	919.430787	-404.490070	371.322345	823.326548	-415.032522	443.126534	746.951314	-393.866137	457.840586	733.642045	-295.817706	355.294810	390.467384	-409.579622	369.814871	401.271188	-335.416667	284.722288	349.567237	-374.338670	455.101232	312.234274	-433.854743	419.323907	649.341299	-419.018775	421.378481	562.856769	-411.676351	378.460451	484.935028	-413.083057	445.210058	559.041849	-380.416416	544.339603	333.034590	-363.804181	-64.857243	852.386329	-240.604065	21.226139	83.758441	-442.099569	21.301507	83.698713	-43.805758	
1	0.0050	522.942993	1316.876128	-102.963546	527.807673	1283.067619	-419.543618	501.994291	1324.891624	-254.510985	487.804638	1190.505307	-252.717493	506.415702	1077.382143	13.900374	690.631344	911.387347	-36.627574	451.976671	1022.615076	-517.839374	670.855442	909.755689	-461.854501	24.143593	1129.756787	-237.265949	158.626361	1124.910571	-385.208984	177.857535	1122.063428	-95.842007	200.050854	1065.156565	-366.270299	218.688343	1065.016592	-116.784878	58.875042	1157.551641	-178.748585	50.677010	1166.431773	-288.888067	148.998784	977.082521	-54.183272	120.093125	1000.787651	-431.964405	238.520067	869.347287	-70.089066	307.455145	818.644699	-83.173688	336.828533	733.867228	-95.268151	329.895472	835.447186	-108.049347	367.142009	635.455950	-131.622565	337.503793	623.547331	-227.267853	278.163698	586.623196	-92.811096	223.368928	517.022157	-100.185363	139.915116	485.838264	-91.688330	235.804782	498.634623	-132.661469	58.211704	425.369170	-84.694075	60.726203	432.942699	-164.731067	-35.008966	418.528897	-118.769166	212.238532	325.582497	-127.865317	131.225811	336.112627	-60.500140	229.011169	915.416216	-428.204863	310.642459	890.147463	-419.899970	329.771990	919.425231	-404.491024	371.324518	823.331053	-415.038662	443.093441	746.921244	-393.855222	457.808212	733.597595	-295.793732	355.273606	390.439024	-409.584566	369.796091	401.276907	-335.377360	284.699561	349.538689	-374.346149	455.103145	312.236213	-433.845742	419.295791	649.321540	-419.010010	421.353580	562.843095	-411.677359	378.429085	484.902913	-413.088707	445.181125	559.006148	-380.413879	544.322782	333.042268	-363.827315	-64.848717	852.369246	-240.600377	21.240710	83.638679	-442.187680	21.301303	83.682175	-43.812826	
2	0.0100	522.943216	1316.857366	-102.943338	527.826473	1283.080417	-419.488385	502.015902	1324.857405	-254.401035	487.765587	1190.497337	-252.671103	506.410956	1077.359955	13.915559	690.640726	911.387926	-36.611707	451.988544	1022.638868	-517.812672	670.853634	909.744037	-461.818897	24.127611	1129.778648	-237.260224	158.640400	1124.951288	-385.238464	177.851938	1122.074095	-95.816581	200.039699	1065.187138	-366.240766	218.683307	1065.018399	-116.797742	58.900024	1157.529039	-178.758374	50.703437	1166.437043	-288.876787	149.016026	977.092960	-54.182208	120.106153	1000.787425	-431.954625	238.522980	869.352384	-70.072593	307.459259	818.641658	-83.167712	336.837323	733.840920	-95.269413	329.885561	835.463103	-108.056269	367.153213	635.438791	-131.626702	337.494014	623.540832	-227.283568	278.165872	586.613846	-92.817668	223.320394	516.976305	-100.160229	139.913372	485.837631	-91.684081	235.815532	498.655023	-132.653881	58.215092	425.363523	-84.694618	60.693897	432.973093	-164.731951	-35.026608	418.521868	-118.791267	212.224619	325.602416	-127.853780	131.221499	336.138616	-60.506354	229.022131	915.414672	-428.181777	310.640857	890.134182	-419.886489	329.781445	919.416565	-404.457154	371.307648	823.297222	-415.015454	443.070409	746.890948	-393.834561	457.783113	733.564286	-295.752559	355.257397	390.416844	-409.581216	369.793728	401.248457	-335.364981	284.693617	349.508525	-374.353179	455.091061	312.206762	-433.846707	419.293354	649.296867	-418.985339	421.350273	562.807714	-411.667226	378.414025	484.876052	-413.074818	445.171633	558.960061	-380.383896	544.324311	333.037380	-363.829715	-64.860257	852.385767	-240.610491	21.219093	83.652656	-442.195786	21.306796	83.690729	-43.803826	
3	0.0150	522.932270	1316.833353	-102.924690	527.126084	1282.274510	-418.962428	502.015902	1324.857405	-254.401035	487.746092	1190.493352	-252.647892	506.746951	1077.087504	14.118280	690.490941	911.760229	-36.322446	452.211031	1022.504559	-517.796804	670.870984	909.750096	-461.777233	25.216432	1129.124490	-237.711322	158.595973	1124.971891	-385.187280	177.230059	1122.025395	-96.865253	200.028279	1065.218059	-366.220327	218.671553	1065.023655	-116.794056	59.324998	1157.387225	-178.478542	51.363428	1166.299110	-288.544434	149.008001	977.103150	-54.183567	120.107245	1000.797203	-431.948019	238.717526	869.444926	-70.098626	307.319408	817.916097	-83.975750	336.830790	733.851788	-95.267274	329.588369	836.072181	-107.789232	367.130367	635.423573	-131.637517	337.491273	623.530813	-227.288679	278.157752	586.600850	-92.815150	221.669396	516.805527	-100.161532	139.470250	486.443193	-91.321757	235.792019	499.131540	-132.070668	58.059799	425.154474	-84.564986	57.439276	435.547591	-163.464484	-35.032272	418.507348	-118.771219	212.226659	325.624492	-127.863454	131.220184	336.139846	-60.517924	229.104935	915.245500	-428.205117	310.651529	890.117222	-419.849458	329.748619	919.318553	-404.353216	371.304228	823.267738	-414.984946	443.057486	746.859906	-393.821272	457.749966	733.540490	-295.748248	354.987194	390.934546	-409.810006	369.787225	401.201404	-335.362367	284.683888	349.493531	-374.358350	455.089233	312.190062	-433.850157	419.268802	649.273456	-418.971131	421.669223	562.393305	-411.590554	378.406671	484.852613	-413.075668	445.193197	558.805752	-380.258983	544.306561	333.017311	-363.840256	-64.864676	852.378751	-240.609186	21.234427	83.777175	-442.105790	21.291533	83.686886	-43.810599	
4	0.0200	522.611339	1317.012632	-103.144673	527.034895	1282.582863	-418.960108	502.163579	1324.742882	-254.346404	487.694092	1190.608077	-252.593199	506.471828	1077.514449	14.153475	690.568936	911.977845	-36.144117	452.072421	1022.743409	-517.655123	670.603741	909.735030	-461.804621	25.239817	1129.204523	-237.735737	158.619915	1125.224426	-385.202585	177.201987	1122.085584	-96.926255	200.034279	1065.257402	-366.266384	218.405223	1065.108474	-117.133229	59.347993	1157.493135	-178.503891	51.375897	1166.390782	-288.546300	148.870748	977.213673	-54.682688	120.129975	1001.082224	-431.758064	238.633849	869.732827	-70.000869	307.152830	817.889133	-84.362910	336.707676	734.121639	-95.062362	329.523566	835.856552	-107.718816	366.799446	635.834778	-131.763269	337.110894	623.875675	-227.281319	277.848681	586.870430	-92.854495	221.030560	517.335245	-100.493392	139.460590	486.353305	-91.263578	235.854041	498.626870	-131.265830	57.704354	425.858403	-84.674400	57.487723	435.661619	-163.522216	-34.966871	418.547616	-118.730223	212.268834	326.052219	-127.621291	131.057497	336.430200	-60.463209	229.101543	915.348083	-427.787402	310.585115	890.399571	-420.013781	329.586708	919.505022	-404.481330	371.214935	823.450421	-415.015105	442.864980	747.117791	-394.077664	457.582174	733.906329	-295.685477	354.985841	390.985842	-409.828597	369.962465	401.746061	-335.143342	284.317132	349.792733	-374.847336	454.851766	312.544582	-434.098110	419.179383	649.559486	-419.026385	421.542136	562.640049	-411.437705	378.309833	485.038689	-413.070532	445.051373	559.041111	-380.221943	544.178382	333.321808	-363.893479	-64.792407	852.400890	-240.683765	20.998217	83.889000	-442.384389	21.193334	83.873877	-43.879304	
5	0.0250	522.674571	1317.070917	-102.916457	527.035680	1282.663184	-418.895467	502.154045	1324.724854	-254.391486	487.669448	1190.576245	-252.577892	506.404092	1077.560988	14.169690	690.523440	911.873169	-36.177430	452.085685	1022.803654	-517.587776	670.741687	909.880570	-461.754268	25.222170	1129.280075	-237.740764	158.621404	1125.292821	-385.183210	177.213333	1122.035654	-96.862460	200.008773	1065.300630	-366.258435	218.499642	1065.150979	-116.988569	59.356397	1157.529608	-178.517957	51.417126	1166.427132	-288.560453	149.014749	977.195810	-54.573050	120.124370	1001.103900	-431.753380	238.653145	869.781570	-69.980782	307.309386	817.957718	-84.307206	336.659240	734.248275	-95.200376	329.576613	836.037097	-107.783327	366.838647	635.858347	-131.692378	337.100484	623.926384	-227.221792	277.852343	586.937874	-92.854166	221.161370	517.304807	-100.318711	139.420384	486.416948	-91.321738	235.763991	499.094567	-132.029644	57.806495	425.713217	-84.533747	57.455813	435.586982	-163.501283	-35.082919	418.562915	-118.807219	212.152964	326.066386	-127.683430	131.008014	336.503772	-60.449944	229.112017	915.342556	-427.707180	310.592968	890.434519	-419.994520	329.624967	919.524920	-404.415255	371.230400	823.454384	-414.951345	442.882218	747.122430	-394.044573	457.538948	733.951266	-295.644622	354.993771	390.970438	-409.824470	370.038209	401.804090	-335.085782	284.428264	349.717077	-374.750092	454.880312	312.524993	-434.080221	419.180513	649.561185	-418.998768	421.529518	562.665160	-411.424246	378.332942	485.031344	-413.048704	445.068960	559.006168	-380.173275	544.195692	333.268903	-363.870230	-64.787912	852.401899	-240.699326	21.104947	83.911767	-442.129403	21.171066	83.907670	-43.898746	
6	0.0300	522.685738	1317.076521	-102.857045	527.044190	1282.696937	-418.862378	502.218703	1324.698837	-254.268565	487.651793	1190.582866	-252.562206	506.359603	1077.594966	14.192677	690.515070	911.878372	-36.169419	451.873371	1023.016542	-517.556172	670.745136	909.908089	-461.725903	25.255076	1129.295184	-237.755421	158.622304	1125.318457	-385.182433	177.215405	1122.027682	-96.816926	200.016547	1065.327892	-366.236871	218.479447	1065.162100	-116.981668	59.360167	1157.555390	-178.504665	51.419562	1166.447546	-288.545108	149.021700	977.200410	-54.594249	120.122149	1001.121580	-431.731381	238.635744	869.762606	-70.004211	307.312389	817.952875	-84.318417	336.636338	734.288162	-95.216481	329.586367	836.034624	-107.800295	366.830393	635.851727	-131.707679	337.059621	623.941522	-227.221345	277.834969	586.956149	-92.873650	221.116661	517.333896	-100.332012	139.397673	486.424261	-91.344084	235.732121	499.160029	-132.078262	57.675859	425.912844	-84.560724	57.411965	435.631126	-163.492531	-35.097540	418.544017	-118.811289	212.133319	326.095092	-127.705485	131.003002	336.528046	-60.443388	229.113317	915.359544	-427.696041	310.597749	890.451940	-420.013071	329.625830	919.525020	-404.394106	371.231520	823.461594	-414.914461	442.875810	747.131645	-394.045452	457.500384	733.980598	-295.625736	355.002088	390.975415	-409.839455	370.049684	401.848515	-335.057807	284.443568	349.741017	-374.791807	454.859753	312.539813	-434.118814	419.173407	649.580578	-418.974520	421.547640	562.692567	-411.390250	378.345491	485.031913	-413.054643	445.060831	559.020286	-380.163056	544.207978	333.239879	-363.887772	-64.791096	852.411289	-240.704474	21.091645	83.821720	-442.202065	21.158151	83.907089	-43.899075	
